<?xml version="1.0" encoding="UTF-8"?>
<svg xmlns="http://www.w3.org/2000/svg" viewBox="-40.00 -40.00 10440.00 1320.00">
 <g id="wordmark" transform="translate(0 995.00) scale(1 -1)">
  <path transform="translate(0.00 0)" d="M6 420V509L122 556L210 725H326V571H566V420H326V252Q326 190 351.0 165.0Q376 140 442 140Q484 140 516.5 147.0Q549 154 576 167V13Q545 2 496.5 -7.0Q448 -16 396 -16Q254 -16 188.0 48.5Q122 113 122 224V420Z"/>
  <path transform="translate(593.00 0)" d="M29 571H237L263 421Q288 494 337.0 541.0Q386 588 468 588Q502 588 539 580V406Q509 412 482.5 414.5Q456 417 434 417Q390 417 353.0 399.0Q316 381 293.5 341.5Q271 302 271 235V0H67V379Z"/>
  <path transform="translate(1136.00 0)" d="M572 0 557 115Q516 53 454.0 18.5Q392 -16 315 -16Q231 -16 167.5 21.5Q104 59 68.0 127.0Q32 195 32 285Q32 376 68.0 444.0Q104 512 167.5 550.0Q231 588 315 588Q392 588 454.0 553.5Q516 519 557 457L572 571H784L748 286L784 0ZM239 285Q239 222 277.5 181.0Q316 140 376 140Q438 140 489.5 181.0Q541 222 562 285Q548 328 520.0 361.0Q492 394 455.0 413.0Q418 432 376 432Q316 432 277.5 390.5Q239 349 239 285Z"/>
  <path transform="translate(1952.00 0)" d="M768 571 501 0H268L1 571H227L387 181L550 571Z"/>
  <path transform="translate(2711.00 0)" d="M56 580 159 560 261 580V0H56ZM158 627Q105 627 72.0 653.5Q39 680 39 726Q39 771 72.0 798.0Q105 825 158 825Q212 825 245.0 798.0Q278 771 278 726Q278 680 245.0 653.5Q212 627 158 627Z"/>
  <path transform="translate(3018.00 0)" d="M718 186Q718 87 629.5 35.5Q541 -16 386 -16Q279 -16 198.5 10.0Q118 36 73.0 83.0Q28 130 25 192H232Q242 157 283.5 138.0Q325 119 395 119Q519 119 519 167Q519 186 495.0 196.0Q471 206 413 210L312 218Q210 225 150.5 248.5Q91 272 65.5 309.0Q40 346 40 395Q40 460 80.5 502.5Q121 545 193.5 566.5Q266 588 363 588Q459 588 534.0 563.0Q609 538 654.0 493.5Q699 449 706 389H499Q491 417 457.0 438.0Q423 459 353 459Q241 459 241 413Q241 396 258.0 386.0Q275 376 324 372L457 362Q556 355 613.0 333.0Q670 311 694.0 274.0Q718 237 718 186Z"/>
  <path transform="translate(3816.00 0)" d="M711 450V300H291L269 168H744V0H47L104 375L47 750H739V582H269L291 450Z"/>
  <path transform="translate(4600.00 0)" d="M615 750 956 0H735L672 144H285L222 0H1L342 750ZM357 311H600L479 592Z"/>
  <path transform="translate(5547.00 0)" d="M19 750H799V566H513V0H305V566H19Z"/>
  <path transform="translate(6355.00 0)" d="M36 246H247Q254 199 304.0 171.5Q354 144 436 144Q512 144 556.0 163.5Q600 183 600 221Q600 250 574.5 266.0Q549 282 479 289L339 302Q183 316 113.5 372.5Q44 429 44 525Q44 603 89.5 656.5Q135 710 217.5 738.0Q300 766 410 766Q518 766 602.0 735.5Q686 705 735.0 649.0Q784 593 789 519H579Q573 559 528.0 582.5Q483 606 406 606Q336 606 295.0 587.5Q254 569 254 533Q254 507 278.0 491.0Q302 475 367 469L516 454Q623 444 687.0 419.5Q751 395 780.0 352.0Q809 309 809 245Q809 166 762.0 107.5Q715 49 630.0 16.5Q545 -16 432 -16Q315 -16 227.0 16.5Q139 49 89.0 108.0Q39 167 36 246Z"/>
  <path transform="translate(7248.00 0)" d="M56 770H261V463Q302 522 363.0 555.0Q424 588 500 588Q584 588 647.5 550.0Q711 512 746.5 444.0Q782 376 782 285Q782 195 746.5 127.0Q711 59 647.5 21.5Q584 -16 500 -16Q424 -16 363.0 17.5Q302 51 261 110V0H56ZM576 285Q576 349 537.5 390.5Q499 432 438 432Q397 432 360.0 413.0Q323 394 295.0 361.0Q267 328 252 285Q274 222 325.0 181.0Q376 140 438 140Q499 140 537.5 181.0Q576 222 576 285Z"/>
  <path transform="translate(8052.00 0)" d="M302 -16Q182 -16 115.5 56.5Q49 129 49 252V571H253V281Q253 218 284.0 184.0Q315 150 373 150Q436 150 471.0 188.5Q506 227 506 297V571H710V197L747 0H543L524 118Q487 52 429.0 18.0Q371 -16 302 -16Z"/>
  <path transform="translate(8819.00 0)" d="M310 60Q230 60 166.5 93.0Q103 126 66.5 185.5Q30 245 30 324Q30 403 66.5 462.5Q103 522 166.5 555.0Q230 588 310 588Q390 588 452.0 555.5Q514 523 555 478V571H759V152Q759 47 710.0 -27.5Q661 -102 573.0 -141.5Q485 -181 367 -181Q287 -181 220.0 -161.0Q153 -141 86 -100V54Q148 8 216.5 -12.5Q285 -33 354 -33Q451 -33 503.0 9.0Q555 51 555 144V164Q514 121 452.0 90.5Q390 60 310 60ZM379 199Q498 199 562 324Q529 388 483.0 418.5Q437 449 379 449Q313 449 274.5 415.5Q236 382 236 324Q236 267 273.5 233.0Q311 199 379 199Z"/>
  <path transform="translate(9622.00 0)" d="M718 186Q718 87 629.5 35.5Q541 -16 386 -16Q279 -16 198.5 10.0Q118 36 73.0 83.0Q28 130 25 192H232Q242 157 283.5 138.0Q325 119 395 119Q519 119 519 167Q519 186 495.0 196.0Q471 206 413 210L312 218Q210 225 150.5 248.5Q91 272 65.5 309.0Q40 346 40 395Q40 460 80.5 502.5Q121 545 193.5 566.5Q266 588 363 588Q459 588 534.0 563.0Q609 538 654.0 493.5Q699 449 706 389H499Q491 417 457.0 438.0Q423 459 353 459Q241 459 241 413Q241 396 258.0 386.0Q275 376 324 372L457 362Q556 355 613.0 333.0Q670 311 694.0 274.0Q718 237 718 186Z"/>
 </g>
</svg>
